<svg width="100" height="100" viewBox="0 0 100 100" fill="none" xmlns="http://www.w3.org/2000/svg">
<path d="M100 50C100 77.6142 77.6142 100 50 100C22.3858 100 0 77.6142 0 50C0 22.3858 22.3858 0 50 0C77.6142 0 100 22.3858 100 50ZM14 50C14 69.8822 30.1177 86 50 86C69.8822 86 86 69.8822 86 50C86 30.1177 69.8822 14 50 14C30.1177 14 14 30.1177 14 50Z" fill="#928A97" fill-opacity="0.27"/>
<path d="M50 100C36.7392 100 24.0215 94.7322 14.6447 85.3553C5.26784 75.9785 -3.68891e-07 63.2608 0 50C3.68891e-07 36.7392 5.26784 24.0215 14.6447 14.6447C24.0215 5.26784 36.7392 -1.58134e-07 50 0V14C40.4522 14 31.2955 17.7928 24.5442 24.5442C17.7928 31.2955 14 40.4522 14 50C14 59.5478 17.7928 68.7045 24.5442 75.4558C31.2955 82.2072 40.4522 86 50 86L50 100Z" fill="#000C24"/>
<path d="M38.1624 53.186C38.8344 53.186 39.4424 53.054 39.9864 52.79C40.5344 52.522 40.9684 52.136 41.2884 51.632C41.6124 51.128 41.7744 50.516 41.7744 49.796C41.7744 49.02 41.5684 48.368 41.1564 47.84C40.7444 47.308 40.2004 46.968 39.5244 46.82C38.7284 46.572 37.9044 46.596 37.0524 46.892L37.4244 44.48H41.1384V43.1H36.0864L35.2584 48.422C35.9024 47.89 36.6384 47.624 37.4664 47.624C38.0104 47.624 38.4884 47.716 38.9004 47.9C39.3124 48.08 39.6344 48.34 39.8664 48.68C40.0984 49.016 40.2144 49.418 40.2144 49.886C40.2144 50.482 40.0264 50.962 39.6504 51.326C39.2744 51.69 38.7704 51.872 38.1384 51.872C37.6064 51.872 37.1404 51.742 36.7404 51.482C36.3404 51.218 36.0684 50.868 35.9244 50.432L34.6764 51.038C34.8444 51.494 35.1004 51.882 35.4444 52.202C35.7924 52.522 36.2004 52.766 36.6684 52.934C37.1364 53.102 37.6344 53.186 38.1624 53.186ZM47.4048 53.192C48.2128 53.192 48.9208 52.978 49.5288 52.55C50.1368 52.118 50.6108 51.516 50.9508 50.744C51.2908 49.972 51.4608 49.076 51.4608 48.056C51.4608 47.036 51.2908 46.14 50.9508 45.368C50.6108 44.596 50.1368 43.996 49.5288 43.568C48.9208 43.136 48.2128 42.92 47.4048 42.92C46.5968 42.92 45.8888 43.136 45.2808 43.568C44.6728 43.996 44.1988 44.596 43.8588 45.368C43.5188 46.14 43.3488 47.036 43.3488 48.056C43.3488 49.076 43.5188 49.972 43.8588 50.744C44.1988 51.516 44.6728 52.118 45.2808 52.55C45.8888 52.978 46.5968 53.192 47.4048 53.192ZM47.4048 51.8C46.9168 51.8 46.4928 51.648 46.1328 51.344C45.7728 51.04 45.4948 50.608 45.2988 50.048C45.1028 49.484 45.0048 48.82 45.0048 48.056C45.0048 47.288 45.1028 46.624 45.2988 46.064C45.4948 45.504 45.7728 45.072 46.1328 44.768C46.4928 44.464 46.9168 44.312 47.4048 44.312C47.8928 44.312 48.3168 44.464 48.6768 44.768C49.0368 45.072 49.3148 45.504 49.5108 46.064C49.7068 46.624 49.8048 47.288 49.8048 48.056C49.8048 48.82 49.7068 49.484 49.5108 50.048C49.3148 50.608 49.0368 51.04 48.6768 51.344C48.3168 51.648 47.8928 51.8 47.4048 51.8ZM55.5959 47.648C56.0799 47.648 56.5139 47.548 56.8979 47.348C57.2859 47.148 57.5919 46.87 57.8159 46.514C58.0439 46.158 58.1579 45.748 58.1579 45.284C58.1579 44.82 58.0439 44.41 57.8159 44.054C57.5919 43.698 57.2859 43.42 56.8979 43.22C56.5139 43.02 56.0799 42.92 55.5959 42.92C55.1119 42.92 54.6759 43.02 54.2879 43.22C53.8999 43.42 53.5919 43.698 53.3639 44.054C53.1399 44.41 53.0279 44.82 53.0279 45.284C53.0279 45.748 53.1399 46.158 53.3639 46.514C53.5919 46.87 53.8999 47.148 54.2879 47.348C54.6759 47.548 55.1119 47.648 55.5959 47.648ZM55.1519 53H56.1959L61.9559 43.1H60.9119L55.1519 53ZM55.5959 46.718C55.1919 46.718 54.8519 46.584 54.5759 46.316C54.2999 46.048 54.1619 45.704 54.1619 45.284C54.1619 44.864 54.2999 44.52 54.5759 44.252C54.8519 43.984 55.1919 43.85 55.5959 43.85C55.9999 43.85 56.3399 43.984 56.6159 44.252C56.8919 44.516 57.0299 44.86 57.0299 45.284C57.0299 45.704 56.8919 46.048 56.6159 46.316C56.3399 46.584 55.9999 46.718 55.5959 46.718ZM61.5119 53.186C61.9959 53.186 62.4319 53.086 62.8199 52.886C63.2079 52.686 63.5139 52.408 63.7379 52.052C63.9659 51.696 64.0799 51.286 64.0799 50.822C64.0799 50.358 63.9659 49.948 63.7379 49.592C63.5139 49.236 63.2079 48.958 62.8199 48.758C62.4319 48.558 61.9959 48.458 61.5119 48.458C61.0279 48.458 60.5919 48.558 60.2039 48.758C59.8159 48.958 59.5079 49.236 59.2799 49.592C59.0559 49.948 58.9439 50.358 58.9439 50.822C58.9439 51.286 59.0559 51.696 59.2799 52.052C59.5079 52.408 59.8159 52.686 60.2039 52.886C60.5919 53.086 61.0279 53.186 61.5119 53.186ZM61.5119 52.256C61.1119 52.256 60.7719 52.122 60.4919 51.854C60.2159 51.586 60.0779 51.242 60.0779 50.822C60.0779 50.402 60.2159 50.058 60.4919 49.79C60.7719 49.522 61.1119 49.388 61.5119 49.388C61.9159 49.388 62.2559 49.522 62.5319 49.79C62.8079 50.058 62.9459 50.402 62.9459 50.822C62.9459 51.242 62.8079 51.586 62.5319 51.854C62.2559 52.122 61.9159 52.256 61.5119 52.256Z" fill="#928A97"/>
</svg>
