<svg width="100" height="100" viewBox="0 0 100 100" fill="none" xmlns="http://www.w3.org/2000/svg">
<path d="M100 50C100 77.6142 77.6142 100 50 100C22.3858 100 0 77.6142 0 50C0 22.3858 22.3858 0 50 0C77.6142 0 100 22.3858 100 50ZM14 50C14 69.8822 30.1177 86 50 86C69.8822 86 86 69.8822 86 50C86 30.1177 69.8822 14 50 14C30.1177 14 14 30.1177 14 50Z" fill="#928A97" fill-opacity="0.27"/>
<path d="M50 100C40.7789 100 31.7374 97.45 23.8751 92.632C16.0128 87.814 9.63597 80.9156 5.44967 72.6995C1.26337 64.4834 -0.569347 55.2697 0.154133 46.077C0.877614 36.8843 4.12911 28.0708 9.54915 20.6107C14.9692 13.1507 22.3466 7.33479 30.8658 3.80602C39.385 0.277254 48.7141 -0.826918 57.8217 0.615583C66.9293 2.05808 75.4606 5.99107 82.4724 11.9797C89.4842 17.9683 94.7033 25.7793 97.5528 34.5492L84.238 38.8754C82.1864 32.5611 78.4286 26.9372 73.3801 22.6254C68.3316 18.3136 62.1891 15.4818 55.6316 14.4432C49.0742 13.4046 42.3572 14.1996 36.2234 16.7403C30.0896 19.281 24.7778 23.4685 20.8754 28.8397C16.973 34.211 14.6319 40.5567 14.111 47.1755C13.5901 53.7942 14.9096 60.4281 17.9238 66.3437C20.9379 72.2592 25.5292 77.2261 31.1901 80.695C36.8509 84.164 43.3608 86 50 86L50 100Z" fill="#000C24"/>
<path d="M34.8971 53H36.7571L41.9891 43.574V43.1H35.0951V44.48H39.6671L34.8971 53ZM47.1001 53.192C47.9081 53.192 48.6161 52.978 49.2241 52.55C49.8321 52.118 50.3061 51.516 50.6461 50.744C50.9861 49.972 51.1561 49.076 51.1561 48.056C51.1561 47.036 50.9861 46.14 50.6461 45.368C50.3061 44.596 49.8321 43.996 49.2241 43.568C48.6161 43.136 47.9081 42.92 47.1001 42.92C46.2921 42.92 45.5841 43.136 44.9761 43.568C44.3681 43.996 43.8941 44.596 43.5541 45.368C43.2141 46.14 43.0441 47.036 43.0441 48.056C43.0441 49.076 43.2141 49.972 43.5541 50.744C43.8941 51.516 44.3681 52.118 44.9761 52.55C45.5841 52.978 46.2921 53.192 47.1001 53.192ZM47.1001 51.8C46.6121 51.8 46.1881 51.648 45.8281 51.344C45.4681 51.04 45.1901 50.608 44.9941 50.048C44.7981 49.484 44.7001 48.82 44.7001 48.056C44.7001 47.288 44.7981 46.624 44.9941 46.064C45.1901 45.504 45.4681 45.072 45.8281 44.768C46.1881 44.464 46.6121 44.312 47.1001 44.312C47.5881 44.312 48.0121 44.464 48.3721 44.768C48.7321 45.072 49.0101 45.504 49.2061 46.064C49.4021 46.624 49.5001 47.288 49.5001 48.056C49.5001 48.82 49.4021 49.484 49.2061 50.048C49.0101 50.608 48.7321 51.04 48.3721 51.344C48.0121 51.648 47.5881 51.8 47.1001 51.8ZM55.2912 47.648C55.7752 47.648 56.2092 47.548 56.5932 47.348C56.9812 47.148 57.2872 46.87 57.5112 46.514C57.7392 46.158 57.8532 45.748 57.8532 45.284C57.8532 44.82 57.7392 44.41 57.5112 44.054C57.2872 43.698 56.9812 43.42 56.5932 43.22C56.2092 43.02 55.7752 42.92 55.2912 42.92C54.8072 42.92 54.3712 43.02 53.9832 43.22C53.5952 43.42 53.2872 43.698 53.0592 44.054C52.8352 44.41 52.7232 44.82 52.7232 45.284C52.7232 45.748 52.8352 46.158 53.0592 46.514C53.2872 46.87 53.5952 47.148 53.9832 47.348C54.3712 47.548 54.8072 47.648 55.2912 47.648ZM54.8472 53H55.8912L61.6512 43.1H60.6072L54.8472 53ZM55.2912 46.718C54.8872 46.718 54.5472 46.584 54.2712 46.316C53.9952 46.048 53.8572 45.704 53.8572 45.284C53.8572 44.864 53.9952 44.52 54.2712 44.252C54.5472 43.984 54.8872 43.85 55.2912 43.85C55.6952 43.85 56.0352 43.984 56.3112 44.252C56.5872 44.516 56.7252 44.86 56.7252 45.284C56.7252 45.704 56.5872 46.048 56.3112 46.316C56.0352 46.584 55.6952 46.718 55.2912 46.718ZM61.2072 53.186C61.6912 53.186 62.1272 53.086 62.5152 52.886C62.9032 52.686 63.2092 52.408 63.4332 52.052C63.6612 51.696 63.7752 51.286 63.7752 50.822C63.7752 50.358 63.6612 49.948 63.4332 49.592C63.2092 49.236 62.9032 48.958 62.5152 48.758C62.1272 48.558 61.6912 48.458 61.2072 48.458C60.7232 48.458 60.2872 48.558 59.8992 48.758C59.5112 48.958 59.2032 49.236 58.9752 49.592C58.7512 49.948 58.6392 50.358 58.6392 50.822C58.6392 51.286 58.7512 51.696 58.9752 52.052C59.2032 52.408 59.5112 52.686 59.8992 52.886C60.2872 53.086 60.7232 53.186 61.2072 53.186ZM61.2072 52.256C60.8072 52.256 60.4672 52.122 60.1872 51.854C59.9112 51.586 59.7732 51.242 59.7732 50.822C59.7732 50.402 59.9112 50.058 60.1872 49.79C60.4672 49.522 60.8072 49.388 61.2072 49.388C61.6112 49.388 61.9512 49.522 62.2272 49.79C62.5032 50.058 62.6412 50.402 62.6412 50.822C62.6412 51.242 62.5032 51.586 62.2272 51.854C61.9512 52.122 61.6112 52.256 61.2072 52.256Z" fill="#928A97"/>
</svg>
