<svg width="100" height="100" viewBox="0 0 100 100" fill="none" xmlns="http://www.w3.org/2000/svg">
<path d="M100 50C100 77.6142 77.6142 100 50 100C22.3858 100 0 77.6142 0 50C0 22.3858 22.3858 0 50 0C77.6142 0 100 22.3858 100 50ZM14 50C14 69.8822 30.1177 86 50 86C69.8822 86 86 69.8822 86 50C86 30.1177 69.8822 14 50 14C30.1177 14 14 30.1177 14 50Z" fill="#928A97" fill-opacity="0.27"/>
<path d="M50 100C39.441 100 29.1531 96.6572 20.6107 90.4508C12.0684 84.2444 5.71007 75.493 2.44717 65.4508C-0.815726 55.4087 -0.815724 44.5913 2.44718 34.5491C5.71008 24.507 12.0684 15.7555 20.6107 9.54914C29.1531 3.34274 39.441 -2.17134e-06 50 0C60.559 2.17135e-06 70.8469 3.34275 79.3893 9.54916C87.9316 15.7556 94.2899 24.507 97.5528 34.5492C100.816 44.5913 100.816 55.4087 97.5528 65.4509L84.238 61.1246C86.5873 53.8943 86.5873 46.1058 84.238 38.8754C81.8888 31.645 77.3108 25.344 71.1603 20.8754C65.0098 16.4068 57.6025 14 50 14C42.3976 14 34.9902 16.4068 28.8397 20.8754C22.6892 25.344 18.1113 31.645 15.762 38.8754C13.4127 46.1057 13.4127 53.8942 15.762 61.1246C18.1112 68.355 22.6892 74.656 28.8397 79.1246C34.9902 83.5932 42.3975 86 50 86L50 100Z" fill="#000C24"/>
<path d="M38.194 53.192C38.838 53.192 39.418 53.068 39.934 52.82C40.45 52.568 40.858 52.224 41.158 51.788C41.462 51.352 41.614 50.858 41.614 50.306C41.614 49.722 41.45 49.198 41.122 48.734C40.798 48.266 40.362 47.922 39.814 47.702C40.242 47.49 40.582 47.186 40.834 46.79C41.09 46.39 41.218 45.95 41.218 45.47C41.218 45.074 41.132 44.72 40.96 44.408C40.792 44.092 40.562 43.824 40.27 43.604C39.982 43.384 39.658 43.216 39.298 43.1C38.942 42.98 38.574 42.92 38.194 42.92C37.634 42.92 37.126 43.032 36.67 43.256C36.214 43.48 35.85 43.784 35.578 44.168C35.31 44.552 35.176 44.988 35.176 45.476C35.176 45.94 35.3 46.372 35.548 46.772C35.796 47.172 36.138 47.482 36.574 47.702C36.038 47.918 35.604 48.26 35.272 48.728C34.944 49.192 34.78 49.716 34.78 50.3C34.78 50.856 34.93 51.352 35.23 51.788C35.534 52.224 35.944 52.568 36.46 52.82C36.976 53.068 37.554 53.192 38.194 53.192ZM38.194 47.114C37.766 47.114 37.408 46.974 37.12 46.694C36.836 46.41 36.694 46.054 36.694 45.626C36.694 45.198 36.838 44.84 37.126 44.552C37.414 44.264 37.77 44.12 38.194 44.12C38.626 44.12 38.984 44.264 39.268 44.552C39.556 44.84 39.7 45.198 39.7 45.626C39.7 46.054 39.558 46.41 39.274 46.694C38.99 46.974 38.63 47.114 38.194 47.114ZM38.194 51.824C37.69 51.824 37.28 51.664 36.964 51.344C36.648 51.024 36.49 50.622 36.49 50.138C36.49 49.806 36.564 49.514 36.712 49.262C36.864 49.006 37.068 48.806 37.324 48.662C37.584 48.518 37.874 48.446 38.194 48.446C38.686 48.446 39.094 48.606 39.418 48.926C39.742 49.246 39.904 49.652 39.904 50.144C39.904 50.624 39.746 51.024 39.43 51.344C39.114 51.664 38.702 51.824 38.194 51.824ZM47.2446 53.192C48.0526 53.192 48.7606 52.978 49.3686 52.55C49.9766 52.118 50.4506 51.516 50.7906 50.744C51.1306 49.972 51.3006 49.076 51.3006 48.056C51.3006 47.036 51.1306 46.14 50.7906 45.368C50.4506 44.596 49.9766 43.996 49.3686 43.568C48.7606 43.136 48.0526 42.92 47.2446 42.92C46.4366 42.92 45.7286 43.136 45.1206 43.568C44.5126 43.996 44.0386 44.596 43.6986 45.368C43.3586 46.14 43.1886 47.036 43.1886 48.056C43.1886 49.076 43.3586 49.972 43.6986 50.744C44.0386 51.516 44.5126 52.118 45.1206 52.55C45.7286 52.978 46.4366 53.192 47.2446 53.192ZM47.2446 51.8C46.7566 51.8 46.3326 51.648 45.9726 51.344C45.6126 51.04 45.3346 50.608 45.1386 50.048C44.9426 49.484 44.8446 48.82 44.8446 48.056C44.8446 47.288 44.9426 46.624 45.1386 46.064C45.3346 45.504 45.6126 45.072 45.9726 44.768C46.3326 44.464 46.7566 44.312 47.2446 44.312C47.7326 44.312 48.1566 44.464 48.5166 44.768C48.8766 45.072 49.1546 45.504 49.3506 46.064C49.5466 46.624 49.6446 47.288 49.6446 48.056C49.6446 48.82 49.5466 49.484 49.3506 50.048C49.1546 50.608 48.8766 51.04 48.5166 51.344C48.1566 51.648 47.7326 51.8 47.2446 51.8ZM55.4358 47.648C55.9198 47.648 56.3538 47.548 56.7378 47.348C57.1258 47.148 57.4318 46.87 57.6558 46.514C57.8838 46.158 57.9978 45.748 57.9978 45.284C57.9978 44.82 57.8838 44.41 57.6558 44.054C57.4318 43.698 57.1258 43.42 56.7378 43.22C56.3538 43.02 55.9198 42.92 55.4358 42.92C54.9518 42.92 54.5158 43.02 54.1278 43.22C53.7398 43.42 53.4318 43.698 53.2038 44.054C52.9798 44.41 52.8678 44.82 52.8678 45.284C52.8678 45.748 52.9798 46.158 53.2038 46.514C53.4318 46.87 53.7398 47.148 54.1278 47.348C54.5158 47.548 54.9518 47.648 55.4358 47.648ZM54.9918 53H56.0358L61.7958 43.1H60.7518L54.9918 53ZM55.4358 46.718C55.0318 46.718 54.6918 46.584 54.4158 46.316C54.1398 46.048 54.0018 45.704 54.0018 45.284C54.0018 44.864 54.1398 44.52 54.4158 44.252C54.6918 43.984 55.0318 43.85 55.4358 43.85C55.8398 43.85 56.1798 43.984 56.4558 44.252C56.7318 44.516 56.8698 44.86 56.8698 45.284C56.8698 45.704 56.7318 46.048 56.4558 46.316C56.1798 46.584 55.8398 46.718 55.4358 46.718ZM61.3518 53.186C61.8358 53.186 62.2718 53.086 62.6598 52.886C63.0478 52.686 63.3538 52.408 63.5778 52.052C63.8058 51.696 63.9198 51.286 63.9198 50.822C63.9198 50.358 63.8058 49.948 63.5778 49.592C63.3538 49.236 63.0478 48.958 62.6598 48.758C62.2718 48.558 61.8358 48.458 61.3518 48.458C60.8678 48.458 60.4318 48.558 60.0438 48.758C59.6558 48.958 59.3478 49.236 59.1198 49.592C58.8958 49.948 58.7838 50.358 58.7838 50.822C58.7838 51.286 58.8958 51.696 59.1198 52.052C59.3478 52.408 59.6558 52.686 60.0438 52.886C60.4318 53.086 60.8678 53.186 61.3518 53.186ZM61.3518 52.256C60.9518 52.256 60.6118 52.122 60.3318 51.854C60.0558 51.586 59.9178 51.242 59.9178 50.822C59.9178 50.402 60.0558 50.058 60.3318 49.79C60.6118 49.522 60.9518 49.388 61.3518 49.388C61.7558 49.388 62.0958 49.522 62.3718 49.79C62.6478 50.058 62.7858 50.402 62.7858 50.822C62.7858 51.242 62.6478 51.586 62.3718 51.854C62.0958 52.122 61.7558 52.256 61.3518 52.256Z" fill="#928A97"/>
</svg>
