<svg width="100" height="100" viewBox="0 0 100 100" fill="none" xmlns="http://www.w3.org/2000/svg">
<path d="M100 50C100 77.6142 77.6142 100 50 100C22.3858 100 0 77.6142 0 50C0 22.3858 22.3858 0 50 0C77.6142 0 100 22.3858 100 50ZM14 50C14 69.8822 30.1177 86 50 86C69.8822 86 86 69.8822 86 50C86 30.1177 69.8822 14 50 14C30.1177 14 14 30.1177 14 50Z" fill="#928A97" fill-opacity="0.27"/>
<path d="M50 100C38.7691 100 27.8652 96.2189 19.0453 89.2658C10.2254 82.3128 4.00332 72.5929 1.3815 61.6723C-1.24031 50.7516 -0.109103 39.2663 4.59284 29.067C9.29479 18.8677 17.2936 10.5484 27.3005 5.44967C37.3073 0.350931 48.7394 -1.23031 59.7545 0.960736C70.7697 3.15178 80.7264 8.98752 88.0203 17.5276C95.3142 26.0677 99.5205 36.8147 99.9614 48.037C100.402 59.2593 97.0522 70.3032 90.4509 79.3893L79.1246 71.1603C83.8776 64.6183 86.2897 56.6667 85.9722 48.5866C85.6548 40.5066 82.6262 32.7687 77.3746 26.6199C72.123 20.471 64.9542 16.2693 57.0233 14.6917C49.0923 13.1142 40.8613 14.2527 33.6563 17.9238C26.4514 21.5949 20.6922 27.5847 17.3068 34.9282C13.9214 42.2718 13.107 50.5412 14.9947 58.404C16.8824 66.2669 21.3623 73.2652 27.7126 78.2714C34.0629 83.2776 41.9137 86 50 86L50 100Z" fill="#000C24"/>
<path d="M39.194 53.192C39.838 53.192 40.418 53.068 40.934 52.82C41.45 52.568 41.858 52.224 42.158 51.788C42.462 51.352 42.614 50.858 42.614 50.306C42.614 49.722 42.45 49.198 42.122 48.734C41.798 48.266 41.362 47.922 40.814 47.702C41.242 47.49 41.582 47.186 41.834 46.79C42.09 46.39 42.218 45.95 42.218 45.47C42.218 45.074 42.132 44.72 41.96 44.408C41.792 44.092 41.562 43.824 41.27 43.604C40.982 43.384 40.658 43.216 40.298 43.1C39.942 42.98 39.574 42.92 39.194 42.92C38.634 42.92 38.126 43.032 37.67 43.256C37.214 43.48 36.85 43.784 36.578 44.168C36.31 44.552 36.176 44.988 36.176 45.476C36.176 45.94 36.3 46.372 36.548 46.772C36.796 47.172 37.138 47.482 37.574 47.702C37.038 47.918 36.604 48.26 36.272 48.728C35.944 49.192 35.78 49.716 35.78 50.3C35.78 50.856 35.93 51.352 36.23 51.788C36.534 52.224 36.944 52.568 37.46 52.82C37.976 53.068 38.554 53.192 39.194 53.192ZM39.194 47.114C38.766 47.114 38.408 46.974 38.12 46.694C37.836 46.41 37.694 46.054 37.694 45.626C37.694 45.198 37.838 44.84 38.126 44.552C38.414 44.264 38.77 44.12 39.194 44.12C39.626 44.12 39.984 44.264 40.268 44.552C40.556 44.84 40.7 45.198 40.7 45.626C40.7 46.054 40.558 46.41 40.274 46.694C39.99 46.974 39.63 47.114 39.194 47.114ZM39.194 51.824C38.69 51.824 38.28 51.664 37.964 51.344C37.648 51.024 37.49 50.622 37.49 50.138C37.49 49.806 37.564 49.514 37.712 49.262C37.864 49.006 38.068 48.806 38.324 48.662C38.584 48.518 38.874 48.446 39.194 48.446C39.686 48.446 40.094 48.606 40.418 48.926C40.742 49.246 40.904 49.652 40.904 50.144C40.904 50.624 40.746 51.024 40.43 51.344C40.114 51.664 39.702 51.824 39.194 51.824ZM47.4046 53.186C48.0766 53.186 48.6846 53.054 49.2286 52.79C49.7766 52.522 50.2106 52.136 50.5306 51.632C50.8546 51.128 51.0166 50.516 51.0166 49.796C51.0166 49.02 50.8106 48.368 50.3986 47.84C49.9866 47.308 49.4426 46.968 48.7666 46.82C47.9706 46.572 47.1466 46.596 46.2946 46.892L46.6666 44.48H50.3806V43.1H45.3286L44.5006 48.422C45.1446 47.89 45.8806 47.624 46.7086 47.624C47.2526 47.624 47.7306 47.716 48.1426 47.9C48.5546 48.08 48.8766 48.34 49.1086 48.68C49.3406 49.016 49.4566 49.418 49.4566 49.886C49.4566 50.482 49.2686 50.962 48.8926 51.326C48.5166 51.69 48.0126 51.872 47.3806 51.872C46.8486 51.872 46.3826 51.742 45.9826 51.482C45.5826 51.218 45.3106 50.868 45.1666 50.432L43.9186 51.038C44.0866 51.494 44.3426 51.882 44.6866 52.202C45.0346 52.522 45.4426 52.766 45.9106 52.934C46.3786 53.102 46.8766 53.186 47.4046 53.186ZM55.135 47.648C55.619 47.648 56.053 47.548 56.437 47.348C56.825 47.148 57.131 46.87 57.355 46.514C57.583 46.158 57.697 45.748 57.697 45.284C57.697 44.82 57.583 44.41 57.355 44.054C57.131 43.698 56.825 43.42 56.437 43.22C56.053 43.02 55.619 42.92 55.135 42.92C54.651 42.92 54.215 43.02 53.827 43.22C53.439 43.42 53.131 43.698 52.903 44.054C52.679 44.41 52.567 44.82 52.567 45.284C52.567 45.748 52.679 46.158 52.903 46.514C53.131 46.87 53.439 47.148 53.827 47.348C54.215 47.548 54.651 47.648 55.135 47.648ZM54.691 53H55.735L61.495 43.1H60.451L54.691 53ZM55.135 46.718C54.731 46.718 54.391 46.584 54.115 46.316C53.839 46.048 53.701 45.704 53.701 45.284C53.701 44.864 53.839 44.52 54.115 44.252C54.391 43.984 54.731 43.85 55.135 43.85C55.539 43.85 55.879 43.984 56.155 44.252C56.431 44.516 56.569 44.86 56.569 45.284C56.569 45.704 56.431 46.048 56.155 46.316C55.879 46.584 55.539 46.718 55.135 46.718ZM61.051 53.186C61.535 53.186 61.971 53.086 62.359 52.886C62.747 52.686 63.053 52.408 63.277 52.052C63.505 51.696 63.619 51.286 63.619 50.822C63.619 50.358 63.505 49.948 63.277 49.592C63.053 49.236 62.747 48.958 62.359 48.758C61.971 48.558 61.535 48.458 61.051 48.458C60.567 48.458 60.131 48.558 59.743 48.758C59.355 48.958 59.047 49.236 58.819 49.592C58.595 49.948 58.483 50.358 58.483 50.822C58.483 51.286 58.595 51.696 58.819 52.052C59.047 52.408 59.355 52.686 59.743 52.886C60.131 53.086 60.567 53.186 61.051 53.186ZM61.051 52.256C60.651 52.256 60.311 52.122 60.031 51.854C59.755 51.586 59.617 51.242 59.617 50.822C59.617 50.402 59.755 50.058 60.031 49.79C60.311 49.522 60.651 49.388 61.051 49.388C61.455 49.388 61.795 49.522 62.071 49.79C62.347 50.058 62.485 50.402 62.485 50.822C62.485 51.242 62.347 51.586 62.071 51.854C61.795 52.122 61.455 52.256 61.051 52.256Z" fill="#928A97"/>
</svg>
