<svg width="100" height="100" viewBox="0 0 100 100" fill="none" xmlns="http://www.w3.org/2000/svg">
<path d="M100 50C100 77.6142 77.6142 100 50 100C22.3858 100 0 77.6142 0 50C0 22.3858 22.3858 0 50 0C77.6142 0 100 22.3858 100 50ZM14 50C14 69.8822 30.1177 86 50 86C69.8822 86 86 69.8822 86 50C86 30.1177 69.8822 14 50 14C30.1177 14 14 30.1177 14 50Z" fill="#928A97" fill-opacity="0.27"/>
<path d="M50 100C38.0948 100 26.5803 95.7521 17.5276 88.0203C8.47484 80.2885 2.47796 69.5803 0.615583 57.8217C-1.24679 46.0631 1.14757 34.0259 7.36799 23.8751C13.5884 13.7243 23.2267 6.12607 34.5492 2.44717C45.8716 -1.23172 58.1352 -0.749882 69.1342 3.80602C80.1331 8.36193 89.1455 16.6929 94.5503 27.3005C99.9552 37.9081 101.398 50.0961 98.6185 61.6723C95.8393 73.2485 89.0207 83.4532 79.3893 90.4509L71.1603 79.1246C78.0949 74.0863 83.0043 66.7389 85.0053 58.404C87.0063 50.0692 85.9677 41.2938 82.0762 33.6563C78.1848 26.0189 71.6958 20.0206 63.7766 16.7403C55.8574 13.4601 47.0276 13.1132 38.8754 15.762C30.7232 18.4108 23.7837 23.8815 19.305 31.1901C14.8262 38.4986 13.1023 47.1655 14.4432 55.6316C15.7841 64.0978 20.1019 71.8077 26.6199 77.3746C33.1379 82.9415 41.4283 86 50 86L50 100Z" fill="#000C24"/>
<path d="M36.854 53H38.762L41.552 49.64C41.836 49.296 42.078 48.964 42.278 48.644C42.482 48.32 42.636 47.978 42.74 47.618C42.848 47.254 42.9 46.842 42.896 46.382C42.896 45.734 42.74 45.148 42.428 44.624C42.116 44.1 41.68 43.684 41.12 43.376C40.56 43.068 39.908 42.914 39.164 42.914C38.428 42.914 37.794 43.064 37.262 43.364C36.73 43.664 36.318 44.07 36.026 44.582C35.738 45.094 35.594 45.668 35.594 46.304C35.594 46.804 35.68 47.262 35.852 47.678C36.028 48.094 36.266 48.456 36.566 48.764C36.87 49.068 37.216 49.304 37.604 49.472C37.992 49.636 38.4 49.718 38.828 49.718C39.228 49.718 39.574 49.622 39.866 49.43L36.854 53ZM39.236 48.35C38.844 48.35 38.492 48.26 38.18 48.08C37.868 47.896 37.622 47.648 37.442 47.336C37.262 47.024 37.172 46.67 37.172 46.274C37.172 45.882 37.262 45.534 37.442 45.23C37.622 44.926 37.866 44.686 38.174 44.51C38.486 44.334 38.84 44.246 39.236 44.246C39.628 44.246 39.976 44.334 40.28 44.51C40.588 44.682 40.828 44.92 41 45.224C41.176 45.528 41.264 45.878 41.264 46.274C41.264 46.658 41.172 47.008 40.988 47.324C40.808 47.636 40.564 47.886 40.256 48.074C39.952 48.258 39.612 48.35 39.236 48.35ZM48.397 53.192C49.205 53.192 49.913 52.978 50.521 52.55C51.129 52.118 51.603 51.516 51.943 50.744C52.283 49.972 52.453 49.076 52.453 48.056C52.453 47.036 52.283 46.14 51.943 45.368C51.603 44.596 51.129 43.996 50.521 43.568C49.913 43.136 49.205 42.92 48.397 42.92C47.589 42.92 46.881 43.136 46.273 43.568C45.665 43.996 45.191 44.596 44.851 45.368C44.511 46.14 44.341 47.036 44.341 48.056C44.341 49.076 44.511 49.972 44.851 50.744C45.191 51.516 45.665 52.118 46.273 52.55C46.881 52.978 47.589 53.192 48.397 53.192ZM48.397 51.8C47.909 51.8 47.485 51.648 47.125 51.344C46.765 51.04 46.487 50.608 46.291 50.048C46.095 49.484 45.997 48.82 45.997 48.056C45.997 47.288 46.095 46.624 46.291 46.064C46.487 45.504 46.765 45.072 47.125 44.768C47.485 44.464 47.909 44.312 48.397 44.312C48.885 44.312 49.309 44.464 49.669 44.768C50.029 45.072 50.307 45.504 50.503 46.064C50.699 46.624 50.797 47.288 50.797 48.056C50.797 48.82 50.699 49.484 50.503 50.048C50.307 50.608 50.029 51.04 49.669 51.344C49.309 51.648 48.885 51.8 48.397 51.8ZM56.5881 47.648C57.0721 47.648 57.5061 47.548 57.8901 47.348C58.2781 47.148 58.5841 46.87 58.8081 46.514C59.0361 46.158 59.1501 45.748 59.1501 45.284C59.1501 44.82 59.0361 44.41 58.8081 44.054C58.5841 43.698 58.2781 43.42 57.8901 43.22C57.5061 43.02 57.0721 42.92 56.5881 42.92C56.1041 42.92 55.6681 43.02 55.2801 43.22C54.8921 43.42 54.5841 43.698 54.3561 44.054C54.1321 44.41 54.0201 44.82 54.0201 45.284C54.0201 45.748 54.1321 46.158 54.3561 46.514C54.5841 46.87 54.8921 47.148 55.2801 47.348C55.6681 47.548 56.1041 47.648 56.5881 47.648ZM56.1441 53H57.1881L62.9481 43.1H61.9041L56.1441 53ZM56.5881 46.718C56.1841 46.718 55.8441 46.584 55.5681 46.316C55.2921 46.048 55.1541 45.704 55.1541 45.284C55.1541 44.864 55.2921 44.52 55.5681 44.252C55.8441 43.984 56.1841 43.85 56.5881 43.85C56.9921 43.85 57.3321 43.984 57.6081 44.252C57.8841 44.516 58.0221 44.86 58.0221 45.284C58.0221 45.704 57.8841 46.048 57.6081 46.316C57.3321 46.584 56.9921 46.718 56.5881 46.718ZM62.5041 53.186C62.9881 53.186 63.4241 53.086 63.8121 52.886C64.2001 52.686 64.5061 52.408 64.7301 52.052C64.9581 51.696 65.0721 51.286 65.0721 50.822C65.0721 50.358 64.9581 49.948 64.7301 49.592C64.5061 49.236 64.2001 48.958 63.8121 48.758C63.4241 48.558 62.9881 48.458 62.5041 48.458C62.0201 48.458 61.5841 48.558 61.1961 48.758C60.8081 48.958 60.5001 49.236 60.2721 49.592C60.0481 49.948 59.9361 50.358 59.9361 50.822C59.9361 51.286 60.0481 51.696 60.2721 52.052C60.5001 52.408 60.8081 52.686 61.1961 52.886C61.5841 53.086 62.0201 53.186 62.5041 53.186ZM62.5041 52.256C62.1041 52.256 61.7641 52.122 61.4841 51.854C61.2081 51.586 61.0701 51.242 61.0701 50.822C61.0701 50.402 61.2081 50.058 61.4841 49.79C61.7641 49.522 62.1041 49.388 62.5041 49.388C62.9081 49.388 63.2481 49.522 63.5241 49.79C63.8001 50.058 63.9381 50.402 63.9381 50.822C63.9381 51.242 63.8001 51.586 63.5241 51.854C63.2481 52.122 62.9081 52.256 62.5041 52.256Z" fill="#928A97"/>
</svg>
