<svg width="34" height="35" viewBox="0 0 34 35" fill="none" xmlns="http://www.w3.org/2000/svg">
<path fill-rule="evenodd" clip-rule="evenodd" d="M16.9946 34.2652C26.3233 34.2652 33.8857 26.7028 33.8857 17.3741C33.8857 8.04534 26.3233 0.48291 16.9946 0.48291C7.66582 0.48291 0.103394 8.04534 0.103394 17.3741C0.103394 26.7028 7.66582 34.2652 16.9946 34.2652ZM12.3041 17.3741C12.3041 14.7911 14.412 12.6833 16.9949 12.6833C19.5779 12.6833 21.6858 14.7911 21.6858 17.3741C21.6858 19.957 19.5779 22.0649 16.9949 22.0649C14.412 22.0649 12.3041 19.957 12.3041 17.3741ZM9.77749 17.3741C9.77749 21.3681 13.0009 24.5915 16.9949 24.5915C20.989 24.5915 24.2124 21.3681 24.2124 17.3741C24.2124 13.38 20.989 10.1566 16.9949 10.1566C13.0009 10.1566 9.77749 13.38 9.77749 17.3741ZM22.8224 9.86103C22.8224 10.7936 23.5755 11.5466 24.508 11.5466C24.7294 11.5469 24.9487 11.5035 25.1534 11.4189C25.358 11.3343 25.5439 11.2101 25.7005 11.0535C25.8571 10.897 25.9812 10.711 26.0659 10.5064C26.1505 10.3018 26.1939 10.0825 26.1936 9.86103C26.1936 8.92849 25.4405 8.17543 24.508 8.17543C23.5755 8.17543 22.8224 8.92849 22.8224 9.86103Z" fill="#928A97"/>
</svg>
